<mxfile host="app.diagrams.net" modified="2023-11-20T23:21:47.827Z" agent="Mozilla/5.0 (Windows NT 10.0; Win64; x64; rv:109.0) Gecko/20100101 Firefox/119.0" etag="mJefk90nI5rKbcZHLwfU" version="22.1.3" type="github">
  <diagram name="Page-1" id="hWbz1MhTdLaLoxnP4Bcp">
    <mxGraphModel dx="794" dy="422" grid="1" gridSize="10" guides="1" tooltips="1" connect="1" arrows="1" fold="1" page="1" pageScale="1" pageWidth="850" pageHeight="1100" math="0" shadow="0">
      <root>
        <mxCell id="0" />
        <mxCell id="1" parent="0" />
        <mxCell id="_gJPIngRi3HvCKaM47VN-10" value="" style="edgeStyle=orthogonalEdgeStyle;rounded=0;orthogonalLoop=1;jettySize=auto;html=1;entryX=0;entryY=0.5;entryDx=0;entryDy=0;" edge="1" parent="1" source="_gJPIngRi3HvCKaM47VN-4" target="_gJPIngRi3HvCKaM47VN-9">
          <mxGeometry relative="1" as="geometry" />
        </mxCell>
        <mxCell id="_gJPIngRi3HvCKaM47VN-4" value="smart sensors/sensors" style="ellipse;whiteSpace=wrap;html=1;" vertex="1" parent="1">
          <mxGeometry x="80" y="160" width="120" height="80" as="geometry" />
        </mxCell>
        <mxCell id="_gJPIngRi3HvCKaM47VN-12" value="" style="edgeStyle=orthogonalEdgeStyle;rounded=0;orthogonalLoop=1;jettySize=auto;html=1;" edge="1" parent="1" source="_gJPIngRi3HvCKaM47VN-9" target="_gJPIngRi3HvCKaM47VN-11">
          <mxGeometry relative="1" as="geometry" />
        </mxCell>
        <mxCell id="_gJPIngRi3HvCKaM47VN-15" value="" style="edgeStyle=orthogonalEdgeStyle;rounded=0;orthogonalLoop=1;jettySize=auto;html=1;" edge="1" parent="1" source="_gJPIngRi3HvCKaM47VN-9" target="_gJPIngRi3HvCKaM47VN-14">
          <mxGeometry relative="1" as="geometry" />
        </mxCell>
        <mxCell id="_gJPIngRi3HvCKaM47VN-9" value="&lt;blockquote&gt;&lt;blockquote&gt;&lt;blockquote&gt;&lt;span style=&quot;white-space: pre;&quot;&gt;&#x9;&lt;/span&gt;&lt;span style=&quot;white-space: pre;&quot;&gt;&#x9;&lt;span style=&quot;white-space: pre;&quot;&gt;&#x9;&lt;/span&gt;&lt;/span&gt;system&amp;nbsp; &lt;span style=&quot;white-space: pre;&quot;&gt;&#x9;&lt;/span&gt;&lt;span style=&quot;white-space: pre;&quot;&gt;&#x9;&lt;span style=&quot;white-space: pre;&quot;&gt;&#x9;&lt;/span&gt;&lt;/span&gt;control&lt;span style=&quot;white-space: pre;&quot;&gt;&#x9;&lt;/span&gt;&lt;/blockquote&gt;&lt;/blockquote&gt;&lt;/blockquote&gt;" style="rounded=0;whiteSpace=wrap;html=1;" vertex="1" parent="1">
          <mxGeometry x="250" y="140" width="250" height="130" as="geometry" />
        </mxCell>
        <mxCell id="_gJPIngRi3HvCKaM47VN-5" value="digital signal processing" style="rounded=0;whiteSpace=wrap;html=1;" vertex="1" parent="1">
          <mxGeometry x="260" y="170" width="90" height="60" as="geometry" />
        </mxCell>
        <mxCell id="_gJPIngRi3HvCKaM47VN-11" value="smart actuators/actuators" style="ellipse;whiteSpace=wrap;html=1;" vertex="1" parent="1">
          <mxGeometry x="580" y="165" width="120" height="80" as="geometry" />
        </mxCell>
        <mxCell id="_gJPIngRi3HvCKaM47VN-14" value="display" style="ellipse;whiteSpace=wrap;html=1;" vertex="1" parent="1">
          <mxGeometry x="315" y="320" width="120" height="80" as="geometry" />
        </mxCell>
      </root>
    </mxGraphModel>
  </diagram>
</mxfile>
